<svg t="1689234821599" class="icon" viewBox="0 0 1024 1024" version="1.1" xmlns="http://www.w3.org/2000/svg" p-id="3899" width="200" height="200"><path d="M850.026667 199.68c-0.725333-5.162667-5.12-8.106667-8.810667-8.106667s-82.218667-5.866667-82.218667-5.866666-54.314667-54.314667-60.906666-60.181334c-5.888-5.866667-17.621333-4.416-22.037334-2.944-0.725333 0-11.733333 3.669333-30.826666 9.557334-18.346667-53.589333-50.645333-102.037333-107.178667-102.037334h-5.12C517.504 9.536 496.96 0 480.064 0c-132.117333 0-195.242667 165.162667-215.061333 248.853333-51.413333 16.149333-88.106667 27.157333-92.501334 28.608-28.629333 8.810667-29.354667 9.557333-33.024 36.693334C136.533333 334.72 61.653333 914.645333 61.653333 914.645333L645.226667 1024l316.373333-68.266667c0-0.725333-110.826667-750.933333-111.573333-756.053333zM612.928 140.906667a1690.026667 1690.026667 0 0 0-49.173333 15.424v-11.008c0-32.298667-4.416-58.730667-11.733334-80 29.354667 4.394667 48.426667 37.418667 60.906667 75.584z m-97.621333-68.266667c8.064 20.565333 13.226667 49.194667 13.226666 88.832v5.866667c-32.32 10.282667-66.816 20.565333-102.058666 31.573333 19.84-75.605333 57.258667-112.32 88.832-126.272zM476.373333 35.242667c5.866667 0 11.733333 2.197333 16.896 5.866666-42.581333 19.818667-87.36 69.738667-106.453333 170.304-27.882667 8.810667-55.04 16.874667-80.746667 24.96 22.037333-76.352 75.605333-201.130667 170.304-201.130666z" fill="#95BF47" p-id="3900"></path><path d="M841.216 190.848c-3.669333 0-82.218667-5.866667-82.218667-5.866667s-54.314667-54.314667-60.906666-60.202666a11.797333 11.797333 0 0 0-8.085334-3.669334L645.973333 1024l316.373334-68.266667S851.498667 204.8 850.773333 199.68a12.714667 12.714667 0 0 0-9.557333-8.832z" fill="#5E8E3E" p-id="3901"></path><path d="M538.069333 365.546667l-38.912 115.989333s-34.496-18.346667-76.352-18.346667c-61.653333 0-64.597333 38.890667-64.597333 48.426667 0 52.864 138.026667 73.429333 138.026667 197.482667 0 97.621333-61.674667 160.746667-145.365334 160.746666-100.565333 0-151.210667-62.4-151.210666-62.4l27.157333-88.810666s52.864 45.504 96.896 45.504c29.376 0 41.109333-22.741333 41.109333-39.637334 0-68.992-113.045333-71.936-113.045333-185.706666 0-95.424 68.266667-187.925333 206.997333-187.925334 52.864-0.725333 79.296 14.677333 79.296 14.677334z" fill="#FFFFFF" p-id="3902"></path></svg>