<svg xmlns="http://www.w3.org/2000/svg" xmlns:xlink="http://www.w3.org/1999/xlink" id="Layer_1" data-name="Layer 1" viewBox="0 0 407.05 115.3"><defs><style>.cls-1{fill:none;}.cls-2{fill:#fff;stroke:#e7e7e7;stroke-width:0.56px;}.cls-3{fill:#231f20;}.cls-4{fill:#ff5f00;}.cls-5{fill:#eb001b;}.cls-6{fill:#f79e1b;}.cls-7{clip-path:url(#clip-path);}.cls-8{fill:#76aa29;}.cls-9{fill:#2889ce;}.cls-10{fill:#1d1f22;}.cls-11{fill:#f6941c;}.cls-12{fill:#000664;}.cls-13{fill:#5afeae;}.cls-14{fill:#292929;}.cls-15{clip-path:url(#clip-path-9);}.cls-16{fill:#333;}.cls-17{fill:#00a081;}</style><clipPath id="clip-path"><rect class="cls-1" x="220.67" y="20.7" width="62.96" height="21.04"></rect></clipPath><clipPath id="clip-path-9"><rect class="cls-1" x="268.96" y="76.11" width="42.7" height="17.67"></rect></clipPath></defs><rect class="cls-2" x="109.2" y="7.59" width="91.26" height="46.96" rx="6.32"></rect><rect class="cls-2" x="206.58" y="7.59" width="91.26" height="46.96" rx="6.32"></rect><rect class="cls-2" x="303.96" y="7.59" width="91.26" height="46.96" rx="6.32"></rect><rect class="cls-2" x="11.82" y="7.59" width="91.26" height="46.96" rx="6.32"></rect><path d="M38.83,23.51a3.65,3.65,0,0,1-2.9,1.38,4.09,4.09,0,0,1,1-3,4.3,4.3,0,0,1,2.86-1.47,4.35,4.35,0,0,1-1,3.09m1,1.59c-1.59-.08-3,.91-3.71.91s-1.92-.86-3.19-.84a4.71,4.71,0,0,0-4,2.42c-1.72,3-.45,7.34,1.22,9.75.82,1.18,1.79,2.5,3.08,2.45s1.7-.78,3.16-.78,1.9.78,3.19.77,2.17-1.19,3-2.39a11,11,0,0,0,1.33-2.74,4.35,4.35,0,0,1-2.59-3.93A4.43,4.43,0,0,1,43.39,27a4.67,4.67,0,0,0-3.58-1.92M49,21.78V39.64H51.8V33.53h3.84a5.67,5.67,0,0,0,6-5.9,5.57,5.57,0,0,0-5.87-5.85Zm2.78,2.34H55c2.41,0,3.78,1.28,3.78,3.54S57.4,31.22,55,31.22H51.78ZM66.69,39.79a4.57,4.57,0,0,0,4.09-2.29h0v2.14h2.58V30.75c0-2.57-2.06-4.24-5.23-4.24-3,0-5.13,1.68-5.2,4h2.51a2.42,2.42,0,0,1,2.62-1.82c1.7,0,2.64.79,2.64,2.24v1l-3.46.2c-3.23.2-5,1.52-5,3.81S64.1,39.79,66.69,39.79Zm.73-2.12C66,37.67,65,37,65,35.87s.9-1.77,2.64-1.88l3.09-.2v1C70.73,36.49,69.31,37.67,67.42,37.67Zm9.42,6.84c2.7,0,4-1,5.09-4.16l4.88-13.68H84L80.71,37.24h0L77.39,26.67H74.48l4.7,13-.26.79a2.21,2.21,0,0,1-2.34,1.86,6.91,6.91,0,0,1-.81-.05v2.13a5.15,5.15,0,0,0,1.07.09Z"></path><rect class="cls-2" x="60.51" y="60.75" width="91.26" height="46.96" rx="6.32"></rect><rect class="cls-2" x="157.89" y="60.75" width="91.26" height="46.96" rx="6.32"></rect><rect class="cls-2" x="255.27" y="60.75" width="91.26" height="46.96" rx="6.32"></rect><rect class="cls-1" x="128.24" y="10.01" width="51.31" height="42.09"></rect><path class="cls-3" d="M141,46.79v-2.1a1.24,1.24,0,0,0-1.15-1.33h-.16a1.29,1.29,0,0,0-1.18.6,1.24,1.24,0,0,0-1.1-.6,1.15,1.15,0,0,0-1,.49v-.41h-.73v3.33h.73V44.93a.77.77,0,0,1,.67-.88s.1,0,.14,0c.48,0,.73.31.73.88v1.86h.73V44.94a.8.8,0,0,1,.69-.88.57.57,0,0,1,.13,0c.5,0,.73.32.73.88V46.8Zm10.86-3.34h-1.19v-1h-.73v1h-.69v.67h.69v1.52c0,.78.3,1.24,1.16,1.24a1.78,1.78,0,0,0,.91-.25l-.21-.63a1.32,1.32,0,0,1-.64.19c-.36,0-.48-.22-.48-.56V44.12h1.19v-.67Zm6.2-.07a1,1,0,0,0-.88.49v-.4h-.72V46.8h.73V44.93c0-.55.24-.87.72-.87a1.08,1.08,0,0,1,.44.09l.23-.68a1.58,1.58,0,0,0-.52-.09Zm-9.37.34a2.42,2.42,0,0,0-1.36-.34c-.85,0-1.39.4-1.39,1.07s.41.88,1.15,1l.34,0c.41.06.59.16.59.34s-.27.4-.76.4a1.73,1.73,0,0,1-1.12-.34l-.34.57a2.42,2.42,0,0,0,1.44.43c1,0,1.52-.45,1.52-1.09s-.45-.89-1.16-1l-.34,0c-.32,0-.57-.11-.57-.33s.24-.39.64-.39a2.09,2.09,0,0,1,1,.29Zm19.47-.34a1,1,0,0,0-.88.49v-.4h-.72V46.8h.73V44.93c0-.55.24-.87.72-.87a1.17,1.17,0,0,1,.45.09l.22-.68a1.58,1.58,0,0,0-.52-.09Zm-9.37,1.74a1.68,1.68,0,0,0,1.62,1.76h.16a1.82,1.82,0,0,0,1.21-.4l-.34-.58a1.43,1.43,0,0,1-.88.29,1,1,0,0,1-1-1.13,1.06,1.06,0,0,1,1-1,1.48,1.48,0,0,1,.88.3l.34-.58a1.75,1.75,0,0,0-1.21-.4A1.69,1.69,0,0,0,158.74,45v.15Zm6.8,0V43.45h-.73v.4a1.29,1.29,0,0,0-1.05-.49,1.76,1.76,0,0,0,0,3.52,1.29,1.29,0,0,0,1.05-.49v.4h.73Zm-2.71,0a1,1,0,0,1,2,.12,1,1,0,0,1-1,.95,1,1,0,0,1-1-1Zm-8.76-1.74a1.74,1.74,0,0,0-1.65,1.84,1.76,1.76,0,0,0,1.71,1.67,2.07,2.07,0,0,0,1.37-.46l-.35-.53a1.57,1.57,0,0,1-1,.34.92.92,0,0,1-1-.82h2.49c0-.09,0-.18,0-.28a1.62,1.62,0,0,0-1.61-1.76Zm0,.64a.83.83,0,0,1,.85.8h-1.73a.83.83,0,0,1,.88-.8Zm18.23,1.1v-3h-.73v1.74a1.29,1.29,0,0,0-1.05-.49,1.76,1.76,0,0,0,0,3.52,1.29,1.29,0,0,0,1.05-.49v.4h.73Zm1.21,1.19.13,0a.31.31,0,0,1,.11.08.23.23,0,0,1,.07.1.36.36,0,0,1,0,.25.21.21,0,0,1-.07.11.34.34,0,0,1-.11.07.31.31,0,0,1-.13,0,.33.33,0,0,1-.31-.21.36.36,0,0,1,0-.25.23.23,0,0,1,.07-.1l.11-.08.13,0Zm0,.6a.18.18,0,0,0,.1,0,.16.16,0,0,0,.08-.06.27.27,0,0,0,0-.37l-.08-.06h-.2l-.09.06a.25.25,0,0,0,0,.37s0,.05.09.06l.1,0Zm0-.42a.11.11,0,0,1,.09,0,.11.11,0,0,1,0,.08,0,0,0,0,1,0,0,.08.08,0,0,1-.07,0l.1.12h-.07l-.09-.12h0v.12h-.06v-.31Zm-.07.06v.09h.12s0,0,0,0,0,0,0,0l-.05,0Zm-3.86-1.43a1,1,0,1,1,1,1.07,1,1,0,0,1-1-1Zm-24.53,0V43.45h-.73v.4a1.31,1.31,0,0,0-1.06-.49,1.76,1.76,0,0,0,0,3.52,1.31,1.31,0,0,0,1.06-.49v.4h.73Zm-2.72,0a1,1,0,0,1,2,.12,1,1,0,0,1-1,.95,1,1,0,0,1-1-1v-.09Z"></path><rect class="cls-4" x="148.4" y="17.99" width="11.01" height="19.78"></rect><path class="cls-5" d="M149.08,27.88A12.62,12.62,0,0,1,153.89,18a12.58,12.58,0,1,0,0,19.79A12.62,12.62,0,0,1,149.08,27.88Z"></path><path class="cls-6" d="M174.24,27.88a12.58,12.58,0,0,1-20.36,9.9A12.58,12.58,0,0,0,156,20.11,12.88,12.88,0,0,0,153.88,18a12.59,12.59,0,0,1,20.36,9.89Z"></path><path class="cls-6" d="M173.05,35.69v-.4h.17V35.2h-.42v.09H173v.4Zm.81,0V35.2h-.14l-.15.34-.14-.34h-.14v.49h.09v-.37l.13.31h.09l.14-.31v.37Z"></path><g class="cls-7"><rect class="cls-8" x="220.67" y="32.82" width="26.65" height="8.87"></rect></g><g class="cls-7"><rect class="cls-9" x="220.67" y="20.7" width="26.65" height="8.89"></rect></g><g class="cls-7"><path class="cls-10" d="M274.17,31.52l-.22,0v3.09l-.18,0h0a4.18,4.18,0,0,0-1.18-.21c-2.59,0-3.15,2-3.15,3.61a3.2,3.2,0,0,0,3.47,3.55,7.35,7.35,0,0,0,2.32-.32,1,1,0,0,0,.88-1.13v-8.9c-.63.13-1.26.23-1.89.33M274,39.89l-.11,0A3.8,3.8,0,0,1,273,40c-.69,0-1.52-.35-1.52-2,0-.86.14-2,1.45-2h0a3.78,3.78,0,0,1,.94.19l.1,0Z"></path></g><g class="cls-7"><path class="cls-10" d="M280.75,34.35a8.73,8.73,0,0,0-2.64.46l-.65.2.21,1.5.66-.22a7.65,7.65,0,0,1,2.16-.37c.28,0,1.16,0,1.16.94v.4h-1.22c-2.2,0-3.23.71-3.23,2.23,0,1.29.95,2.07,2.53,2.07a8.15,8.15,0,0,0,1.75-.24h.07l.2,0,1.88.34V36.76c0-1.6-1-2.41-2.88-2.41m.91,5.59-.11,0-.39.1a3.53,3.53,0,0,1-1,.16c-.61,0-1-.31-1-.81,0-.34.15-.89,1.15-.89h1.29Z"></path></g><g class="cls-7"><path class="cls-10" d="M265.4,34.35a8.63,8.63,0,0,0-2.64.46l-.66.2.22,1.5.66-.22a7.65,7.65,0,0,1,2.15-.37c.29,0,1.16,0,1.16.94v.4h-1.21c-2.2,0-3.23.71-3.23,2.23,0,1.29.94,2.07,2.52,2.07a8.32,8.32,0,0,0,1.76-.24h.06l.19,0c.62.12,1.26.22,1.88.36V36.78c0-1.62-1-2.43-2.86-2.43m.89,5.59-.11,0-.39.1a3.42,3.42,0,0,1-1,.16c-.61,0-1-.31-1-.81,0-.34.15-.89,1.15-.89h1.29Z"></path></g><g class="cls-7"><path class="cls-10" d="M258,34.37a5.36,5.36,0,0,0-2.14.47l-.08,0-.07,0a3.26,3.26,0,0,0-1.92-.47,8.22,8.22,0,0,0-2.27.34c-.67.2-.93.52-.93,1.14v5.64h2.11V36.25l.1,0a3,3,0,0,1,.93-.17.84.84,0,0,1,.92,1v4.46h2.07V36.93a1.17,1.17,0,0,0-.07-.46l-.06-.13.13-.07a2.71,2.71,0,0,1,1-.22.84.84,0,0,1,.92,1v4.46h2.08V36.81c0-1.65-.91-2.44-2.75-2.44"></path></g><g class="cls-7"><path class="cls-10" d="M280.11,20.7h-.05a3.74,3.74,0,0,0-2.89,1,2,2,0,0,0-.39,1.17V26c0,.27,0,.37-.07.39l-.06.13h-3.82V24.33h0c-.05-2.3-1.42-3.56-3.39-3.56h-1.93c-.09.55-.14,1-.22,1.51h1.92c1,0,1.53.86,1.53,2.17v2.21l-.14-.07a1.43,1.43,0,0,0-.45-.07h-3.3c-.07.42-.14,1-.24,1.52h10.17l1.1-.19a5.56,5.56,0,0,0,2.12.39,3.47,3.47,0,0,0,3.63-3.75,3.47,3.47,0,0,0-3.52-3.79m0,5.79a6.27,6.27,0,0,1-1.22-.12l-.12,0v-3a2.11,2.11,0,0,0,0-.43l-.07-.14.14-.05.1,0v0l.14,0,0,0a5,5,0,0,1,1.08-.13h0c1.29,0,1.44,1.14,1.44,2,0,1.69-.8,2-1.5,2"></path></g><g class="cls-7"><path class="cls-10" d="M262.29,29h.1c2.2,0,3.23-.72,3.23-2.52a2.31,2.31,0,0,0-2.52-2.33h-2a.88.88,0,0,1-1-.92c0-.39.15-.9,1.15-.9h4.44c.1-.57.14-.94.24-1.51h-4.62c-2.15,0-3.23.91-3.23,2.41s.94,2.25,2.53,2.25h2a1,1,0,0,1,1,1,1,1,0,0,1-1.14,1h-8c-1,0-1.7-.58-1.7-1.89v-.91c0-1.38.53-2.24,1.7-2.24h1.93c.09-.59.14-1,.22-1.51h-2.66c-2,0-3.33,1.31-3.38,3.62v1a3.12,3.12,0,0,0,3.38,3.4h8.37Z"></path></g><rect class="cls-11" x="324.49" y="42.35" width="50.2" height="4.5"></rect><rect class="cls-12" x="324.49" y="15.59" width="50.2" height="4.5"></rect><path class="cls-12" d="M344.83,25.05l-5.19,12.37h-3.38l-2.56-9.88c-.16-.61-.28-.83-.76-1.08a13.29,13.29,0,0,0-3.16-1.06l.08-.36h5.46a1.46,1.46,0,0,1,1.46,1.26l1.34,7.16L341.46,25h3.37Zm13.26,8.33c0-3.27-4.52-3.44-4.48-4.9,0-.44.43-.91,1.35-1a5.81,5.81,0,0,1,3.16.55l.56-2.61a8.73,8.73,0,0,0-3-.55c-3.16,0-5.39,1.68-5.41,4.09,0,1.79,1.6,2.78,2.79,3.37s1.68,1,1.66,1.53c0,.83-1,1.2-1.91,1.21a6.63,6.63,0,0,1-3.29-.78L349,37a9.63,9.63,0,0,0,3.56.66c3.36,0,5.57-1.68,5.58-4.25m8.35,4h2.95l-2.58-12.37h-2.73a1.42,1.42,0,0,0-1.36.91l-4.8,11.46h3.36l.67-1.85h4.11ZM362.86,33l1.7-4.64,1,4.64Zm-13.45-8-2.65,12.37h-3.19l2.65-12.37Z"></path><path class="cls-13" d="M129.27,97.08H83a8,8,0,0,1-8-8V79.41a8,8,0,0,1,8-8h46.25a8,8,0,0,1,8,8v9.64A8,8,0,0,1,129.27,97.08Z"></path><path class="cls-14" d="M126.08,79.64l-3.19,12.17v0h2.5l3.19-12.18h-2.5ZM86.67,86.55a2.62,2.62,0,0,1-1.19.27c-.89,0-1.39-.15-1.46-.88V82h0V79.71L81.79,80a2.75,2.75,0,0,0,2.34-2.65V76.6h-2.5V80l-.15,0v6.3a2.85,2.85,0,0,0,3.15,2.84,4.91,4.91,0,0,0,2-.42h0l0-2.23Z"></path><path class="cls-14" d="M87.05,79.18l-7,1.07V82l7-1.08Zm0,2.61-7,1.07v1.69l7-1.07Zm7.84.8a3.11,3.11,0,0,0-3.34-3.15,3.38,3.38,0,0,0-2.77,1.31,6.89,6.89,0,0,0,0,7.15,3.34,3.34,0,0,0,2.77,1.26A3.08,3.08,0,0,0,94.89,86v3h2.49v-9.3l-2.49.39v2.53ZM95,84.32c0,1.73-.92,2.88-2.34,2.88s-2.35-1.07-2.35-2.88.89-2.88,2.35-2.88a2.14,2.14,0,0,1,1.73.81A3.44,3.44,0,0,1,95,84.32Zm9.61-4.88a3.09,3.09,0,0,0-3.35,3.15V77l-2.49.38V89h2.49V86a3.08,3.08,0,0,0,3.35,3.15c2.34,0,3.76-1.8,3.76-4.84S107,79.44,104.65,79.44Zm-1.12,7.76c-1.42,0-2.34-1.11-2.34-2.88a3.44,3.44,0,0,1,.61-2.07,2.08,2.08,0,0,1,1.73-.81c1.46,0,2.34,1.08,2.34,2.88s-.88,2.88-2.34,2.88Zm11.64-7.76a3.07,3.07,0,0,0-3.34,3.15V77l-2.5.38V89h2.5V86a3.07,3.07,0,0,0,3.34,3.15c2.34,0,3.77-1.8,3.77-4.84s-1.43-4.88-3.77-4.88Zm-1.11,7.76c-1.42,0-2.35-1.11-2.35-2.88a3.37,3.37,0,0,1,.62-2.07,2.08,2.08,0,0,1,1.73-.81c1.46,0,2.34,1.08,2.34,2.88s-.88,2.88-2.34,2.88Zm4.88-7.56h2.65L123.74,89h-2.38Zm11.67,1v-.73h-.3v-.16h.8v.16h-.3v.73Zm.54,0v-.93h.31l.15.43c0,.11.08.15.08.19s0-.08.08-.19l.15-.43h.31v.93H132v-.73l-.27.73h-.2l-.23-.73v.73Z"></path><g class="cls-15"><path d="M273.42,83.15a.66.66,0,0,0-.46.31c-.25.48-.44,1-.68,1.48a.46.46,0,0,0,.12.61,16.52,16.52,0,0,1,1.41,1.72,1.58,1.58,0,0,1-.2,2.13A6.09,6.09,0,0,1,272,90.57c-.86.41-1.79.67-2.68,1-.12,0-.32.2-.33.31a.38.38,0,0,0,.25.48c1,.45,2.08.86,3.16,1.31.35-.53.7-1,1-1.54a8.47,8.47,0,0,0,.5-8.67A.64.64,0,0,0,273.42,83.15Zm36.87-3.63,0,0a1.27,1.27,0,0,0-2.07.42,1.25,1.25,0,0,0,.28,1.38l0,0a1.25,1.25,0,0,0,1.8,0,1.27,1.27,0,0,0,.27-1.39A1.39,1.39,0,0,0,310.29,79.52Zm-5.28,0a1.6,1.6,0,0,0-.29.44l1.92,1.67a1.05,1.05,0,0,0,.27-.2l0,0a1.35,1.35,0,0,0-1.46-2.2,1.35,1.35,0,0,0-.44.29Zm-28.58-.86s-.47,1-.69,1.49a1.7,1.7,0,0,0-.13.67c.08,1.76.15,3.52.28,5.28A4.31,4.31,0,0,0,278.55,90a9.87,9.87,0,0,0,3.63.84c1.58.09,3.16.14,4.75.15a37.82,37.82,0,0,0,7.81-.68,22.19,22.19,0,0,0,3.71-1c.48-.26.45-.2.94-.07a15.9,15.9,0,0,0,5.21,0c.6-.18,1.15-.32,1.29-.74.55.88.86,1.32,1.81,1.23a10,10,0,0,0,2-.34,2.05,2.05,0,0,0,1.59-1.44,5.38,5.38,0,0,0,.17-1,5,5,0,0,0-.77-3.48.53.53,0,0,0-.6-.31c-.12,0-.31.2-.39.35-.24.47-.42,1-.65,1.43a.48.48,0,0,0,.13.64c.48.45.94.9,1.39,1.36-1,.11-1.4.23-2.3.3s-2.55,0-3-.77a3.73,3.73,0,0,0-1.1-1.41,3.55,3.55,0,0,0-3.64,0,2.29,2.29,0,0,0-1.25,1.53.64.64,0,0,1-.48.63,47.28,47.28,0,0,1-16.2,1.37,14.54,14.54,0,0,1-3.78-.83,2.25,2.25,0,0,1-1.55-2.36c0-2.17,0-4.34,0-6.51a.42.42,0,0,0-.38-.45h0c-.17,0-.39.39-.39.39Zm27.75,9-4.2,0a2.15,2.15,0,0,1,2-1.73c2.46-.09,2.18,1.78,2.18,1.78Z"></path><path d="M270.69,78.91a.42.42,0,0,0-.38-.46h0c-.17,0-.39.39-.39.39s-.48,1-.69,1.5a1.54,1.54,0,0,0-.13.67c0,.86.07,1.73.11,2.59l.18,3.69q.06,1.13.12,2.28h.69a14.61,14.61,0,0,0,.49-2.56c0-1.15,0-6.55,0-8.1Z"></path></g><path d="M332.43,83.27l-.12-.12a4.06,4.06,0,0,0-5.73,5.76l.12.11a4,4,0,0,0,5.73,0,4.07,4.07,0,0,0,.88-4.43A4.36,4.36,0,0,0,332.43,83.27Z"></path><path d="M315.57,83.43a4.17,4.17,0,0,0-.93,1.41l6.14,5.35a4.36,4.36,0,0,0,.86-.66l.13-.13a4.23,4.23,0,0,0,0-6.09,4.3,4.3,0,0,0-6.08,0Z"></path><path class="cls-16" d="M184.51,101.09H182A1.17,1.17,0,0,1,180.7,100V88.67A1.17,1.17,0,0,1,182,87.61h2.55a1.17,1.17,0,0,1,1.26,1.06V100A1.17,1.17,0,0,1,184.51,101.09Z"></path><path class="cls-16" d="M220.43,92.25l-7.5,3.37a6.54,6.54,0,0,1-2,1.44,6.33,6.33,0,0,1-4.86.15l-5.42-2a1.54,1.54,0,1,1,1.09-2.89l5.43,2.06a3.29,3.29,0,0,0,4.21-1.89.88.88,0,0,0-.51-1.15c-2.79-1.08-11.7-4.46-11.7-4.46a9.29,9.29,0,0,0-7.08.21l-3.78,1.7v9.42l4-1.81,13.7,5.08a6.9,6.9,0,0,0,5.28-.19l11-4.92a2.24,2.24,0,0,0,1.31-2,2.22,2.22,0,0,0-3.13-2Z"></path><path class="cls-17" d="M182.06,74.49a.36.36,0,0,0-.32.38v1.66H181V74.87a1.15,1.15,0,0,1,.86-1.14v-.67a1.36,1.36,0,0,1,2.72,0v.38a1.25,1.25,0,0,1-1.33,1.43A1.58,1.58,0,0,1,182.06,74.49Zm1.67-1v-.47a.56.56,0,1,0-1.12,0v.85a.7.7,0,0,0,.56.18A.52.52,0,0,0,183.73,73.53Z"></path><path class="cls-17" d="M189.34,73.94v.78H189a.92.92,0,0,1-.7-.33,1.08,1.08,0,0,1-.83.33h-2.1v-.78h.76V71.05h.78v2.89h.58c.35,0,.43-.21.43-.46V70.69h.78v2.79c0,.25.08.46.43.46Z"></path><path class="cls-17" d="M192.33,73.94v.78h-.92a1,1,0,0,1-.71-.33,1.06,1.06,0,0,1-.83.33h-.58L189,74.6v-.53l.33-.13h.6c.35,0,.43-.21.43-.46V72h.78v1.51c0,.25.08.46.43.46Zm-2.67-2.85a.46.46,0,0,1,.46-.45.47.47,0,0,1,.46.45.46.46,0,0,1-.92,0Zm1.24,0a.46.46,0,1,1,.46.46A.47.47,0,0,1,190.9,71.09Z"></path><path class="cls-17" d="M196.81,71.78v1.76a1.17,1.17,0,0,1-1.17,1.16,1.11,1.11,0,0,1-.79-.29,1.2,1.2,0,0,1-.82.31,1.15,1.15,0,0,1-.76-.31,1.12,1.12,0,0,1-.76.29h-.25l-.33-.11v-.53l.33-.12h.25a.35.35,0,0,0,.38-.36V72.4h.78v1.18a.34.34,0,0,0,.38.38.38.38,0,0,0,.42-.38V72.4h.78v1.18c0,.23.15.36.41.36a.37.37,0,0,0,.38-.38V71.78Z"></path><path class="cls-17" d="M200.87,70.67V74a.74.74,0,0,1-.75.75h-2.59v-.78h.75V71.05h.78v2.89h.8a.23.23,0,0,0,.23-.25v-3Z"></path><path class="cls-17" d="M201.65,74.72v-4h.78v4Z"></path><path class="cls-17" d="M207.22,73.94v.78h-3v-.78h1.63v-.85a.54.54,0,0,0-.58-.56h-.65v-.78h.65a1.32,1.32,0,0,1,1.34,1.34v.85Z"></path><path class="cls-17" d="M209.13,73.94v.78h-.28a1,1,0,0,1-.72-.33,1,1,0,0,1-.83.33h-.16l-.33-.12v-.53l.33-.13h.16c.35,0,.44-.21.44-.46V72h.78v1.51c0,.25.08.46.43.46Zm-1.54-2.84a.45.45,0,0,1,.46-.44.47.47,0,0,1,.47.44.48.48,0,0,1-.47.47A.49.49,0,0,1,207.59,71.1Z"></path><path class="cls-17" d="M212,73.94v.78h-2.89l-.33-.12v-.53l.33-.13h.58a1.3,1.3,0,0,1-.26-.8c0-1.42,1.26-1.79,2.34-1.41v.72c-.82-.3-1.48-.07-1.48.71,0,.58.37.76.85.76H212Z"></path><path class="cls-17" d="M214.57,73.77l-1-1.26V72a4.33,4.33,0,0,1,1.55-.3c.88,0,1.47.37,1.41,1a1.57,1.57,0,0,1-.73,1.15.75.75,0,0,0,.35.08h.78v.78h-1a1,1,0,0,1-.84-.38c-.3.15-1,.25-1,1.06s1.07,1,2,.55v.71c-1.31.65-2.81,0-2.81-1.26A1.74,1.74,0,0,1,214.57,73.77Zm-.17-1.17.73.93a1.07,1.07,0,0,0,.5-.83c0-.35-.83-.45-1.23-.14Z"></path><path class="cls-17" d="M219.93,73.06v.45a1.24,1.24,0,0,1-1.23,1.23h-1.81l-.33-.14v-.53l.33-.11h.52a1,1,0,0,1-.19-.55v-.33a1.31,1.31,0,0,1,1.31-1.33h.07A1.27,1.27,0,0,1,219.93,73.06Zm-.78,0a.52.52,0,0,0-.55-.55h-.07a.52.52,0,0,0-.54.55v.33a.53.53,0,0,0,.49.55h.12a.52.52,0,0,0,.53-.53v-.35Zm-1-2.22a.47.47,0,0,1,.46-.47.46.46,0,1,1,0,.92A.46.46,0,0,1,218.14,70.84Z"></path><path class="cls-17" d="M223.56,73.94v.78h-3v-.78h1.63v-.85a.54.54,0,0,0-.58-.56h-.65v-.78h.65a1.32,1.32,0,0,1,1.34,1.34v.85Z"></path><path class="cls-17" d="M224.79,70.67V74a.74.74,0,0,1-.75.75h-.55l-.33-.12v-.53l.33-.13h.3a.24.24,0,0,0,.24-.25v-3Z"></path><path class="cls-17" d="M225.57,74.72v-4h.78v4Z"></path><path class="cls-16" d="M182.84,82.9c-1.35,0-1.88-.86-1.88-2.08s.53-2.07,1.88-2.07a3.36,3.36,0,0,1,1.38.32v.69a4.59,4.59,0,0,0-1.28-.26c-.7,0-1.06.45-1.06,1.32s.36,1.33,1.06,1.33a4.59,4.59,0,0,0,1.28-.26v.69A3.43,3.43,0,0,1,182.84,82.9Z"></path><path class="cls-16" d="M185.14,80.51,185,80c.95-.4,2.33-.45,2.33.85v2h-.83v-.35a1.16,1.16,0,0,1-.88.4.77.77,0,0,1-.78-.83c0-.68.63-1.11,1.67-1.08v-.13C186.49,80.18,185.77,80.28,185.14,80.51Zm.45,1.43c0,.21.17.31.37.31a.65.65,0,0,0,.51-.23v-.6C185.86,81.37,185.59,81.72,185.59,81.94Z"></path><path class="cls-16" d="M187.85,82.67v-.62a2.35,2.35,0,0,0,1,.28c.34,0,.48-.16.48-.29s-.25-.29-.55-.39-.9-.33-.9-.94.45-1,1.33-1a2.15,2.15,0,0,1,1,.27v.61a1.37,1.37,0,0,0-.8-.27c-.39,0-.59.19-.59.35s.29.3.63.42.84.35.84.88-.54,1-1.27,1A2.83,2.83,0,0,1,187.85,82.67Z"></path><path class="cls-16" d="M190.85,82.83v-4h.83v1.27a1.42,1.42,0,0,1,.83-.29.89.89,0,0,1,1,1v2.06h-.83V81.06c0-.29-.13-.42-.36-.43a1.05,1.05,0,0,0-.62.21v2Z"></path><path class="cls-16" d="M195.3,80.82c0-1.19.56-2,1.82-2s1.81.86,1.81,2-.57,2.08-1.81,2.08S195.3,82,195.3,80.82Zm2.72,0c0-.87-.3-1.31-.92-1.31s-.91.45-.91,1.31.25,1.33.91,1.33S198,81.6,198,80.82Z"></path><path class="cls-16" d="M199.54,82.83v-3h.83v.23a1.48,1.48,0,0,1,.91-.28c.6,0,.88.35.88,1v2.06h-.83V81.07c0-.26-.11-.43-.41-.43a1,1,0,0,0-.55.22v2h-.83Z"></path><path class="cls-16" d="M204.05,78.82h1.55c1.26,0,1.82.81,1.82,2s-.56,2-1.82,2h-1.55v-4Zm2.44,2c0-.86-.3-1.26-.91-1.26H205v2.53h.63C206.19,82.09,206.49,81.69,206.49,80.82Z"></path><path class="cls-16" d="M209.74,82.22a2.31,2.31,0,0,0,.77-.13l.2.56a2.69,2.69,0,0,1-1.13.23,1.45,1.45,0,0,1-1.6-1.61,1.43,1.43,0,0,1,1.43-1.61c.88,0,1.39.7,1.21,1.78h-1.77C208.88,81.9,209.11,82.22,209.74,82.22Zm-.35-2c-.33,0-.53.3-.54.7h1.06C209.91,80.51,209.73,80.24,209.39,80.24Z"></path><path class="cls-16" d="M211.4,82.83v-4h.83v4Z"></path><path class="cls-16" d="M212.88,79.23a.42.42,0,0,1,.84,0,.42.42,0,1,1-.84,0Zm.84,3.6h-.83V80h.83Z"></path><path class="cls-16" d="M214.37,79.85h.93l.4,1.26.21.94h0l.22-.94.41-1.26h.9l-1,3h-1Z"></path><path class="cls-16" d="M219.63,82.22a2.25,2.25,0,0,0,.76-.13l.2.56a2.67,2.67,0,0,1-1.13.23,1.45,1.45,0,0,1-1.59-1.61,1.42,1.42,0,0,1,1.43-1.61c.88,0,1.39.7,1.21,1.78h-1.78A.78.78,0,0,0,219.63,82.22Zm-.33-2c-.33,0-.53.3-.55.7h1.06C219.8,80.51,219.61,80.24,219.3,80.24Z"></path><path class="cls-16" d="M221.24,82.83v-3h.83v.58h0a1,1,0,0,1,1-.56v.64a1,1,0,0,0-1,.55v1.76h-.83Z"></path><path class="cls-16" d="M226.33,79.88l-1.39,4h-.8l.28-.81-1.16-3.22h.93L224.8,82h0l.63-2.19h.88Z"></path></svg>